# xmcd
#
# Track frame offsets: 
#        150
#        28910
#        47352
#        73693
#        101866
#        122055
#        164942
#        195327
#
# Disc length: 2966 seconds
#
# Revision: 0
# Processed by: cddbd v1.5.2PL0 Copyright (c) Steve Scherf et al.
# Submitted via: ExactAudioCopy v0.95b4
#
DISCID=710b9408
DTITLE=Entrama - Simbólico
DYEAR=2004
DGENRE=Latin
TTITLE0=Escrito En Papel Verde
TTITLE1=Travesía
TTITLE2=Grisagua
TTITLE3=Dos Lunas
TTITLE4=Trauco
TTITLE5=Klerdoyet
TTITLE6=Mamilla
TTITLE7=Angelito
EXTD=
EXTT0=
EXTT1=
EXTT2=
EXTT3=
EXTT4=
EXTT5=
EXTT6=
EXTT7=
PLAYORDER=
